<mxfile host="app.diagrams.net" agent="Mozilla/5.0 (Macintosh; Intel Mac OS X 10_15_7) AppleWebKit/537.36 (KHTML, like Gecko) Chrome/129.0.0.0 Safari/537.36" version="24.7.17" pages="2">
  <diagram name="Option 1" id="ZwT0UF-cwYxRt_5KJMQE">
    <mxGraphModel dx="3420" dy="1913" grid="1" gridSize="10" guides="1" tooltips="1" connect="1" arrows="1" fold="1" page="1" pageScale="1" pageWidth="1100" pageHeight="850" math="0" shadow="0">
      <root>
        <mxCell id="0" />
        <mxCell id="1" parent="0" />
        <mxCell id="KdUeozdmvhLvkdsUd1cm-1" value="Voice Recordings&lt;br&gt;Bucket" style="sketch=0;points=[[0,0,0],[0.25,0,0],[0.5,0,0],[0.75,0,0],[1,0,0],[0,1,0],[0.25,1,0],[0.5,1,0],[0.75,1,0],[1,1,0],[0,0.25,0],[0,0.5,0],[0,0.75,0],[1,0.25,0],[1,0.5,0],[1,0.75,0]];outlineConnect=0;fontColor=#232F3E;fillColor=#7AA116;strokeColor=#ffffff;dashed=0;verticalLabelPosition=bottom;verticalAlign=top;align=center;html=1;fontSize=12;fontStyle=0;aspect=fixed;shape=mxgraph.aws4.resourceIcon;resIcon=mxgraph.aws4.s3;" parent="1" vertex="1">
          <mxGeometry x="230" y="380" width="90" height="90" as="geometry" />
        </mxCell>
        <mxCell id="KdUeozdmvhLvkdsUd1cm-5" value="Transcribe&lt;div&gt;Service Lambda&lt;/div&gt;" style="sketch=0;points=[[0,0,0],[0.25,0,0],[0.5,0,0],[0.75,0,0],[1,0,0],[0,1,0],[0.25,1,0],[0.5,1,0],[0.75,1,0],[1,1,0],[0,0.25,0],[0,0.5,0],[0,0.75,0],[1,0.25,0],[1,0.5,0],[1,0.75,0]];outlineConnect=0;fontColor=#232F3E;fillColor=#ED7100;strokeColor=#ffffff;dashed=0;verticalLabelPosition=bottom;verticalAlign=top;align=center;html=1;fontSize=12;fontStyle=1;aspect=fixed;shape=mxgraph.aws4.resourceIcon;resIcon=mxgraph.aws4.lambda;" parent="1" vertex="1">
          <mxGeometry x="420" y="380" width="94" height="94" as="geometry" />
        </mxCell>
        <mxCell id="KdUeozdmvhLvkdsUd1cm-6" style="edgeStyle=orthogonalEdgeStyle;rounded=0;orthogonalLoop=1;jettySize=auto;html=1;entryX=0;entryY=0.5;entryDx=0;entryDy=0;entryPerimeter=0;" parent="1" source="KdUeozdmvhLvkdsUd1cm-1" target="KdUeozdmvhLvkdsUd1cm-5" edge="1">
          <mxGeometry relative="1" as="geometry" />
        </mxCell>
        <mxCell id="KdUeozdmvhLvkdsUd1cm-18" value="S3 Event" style="edgeLabel;html=1;align=center;verticalAlign=middle;resizable=0;points=[];fontStyle=1" parent="KdUeozdmvhLvkdsUd1cm-6" vertex="1" connectable="0">
          <mxGeometry x="-0.128" y="-1" relative="1" as="geometry">
            <mxPoint as="offset" />
          </mxGeometry>
        </mxCell>
        <mxCell id="KdUeozdmvhLvkdsUd1cm-8" value="Transcribe Job&amp;nbsp;&lt;span style=&quot;background-color: initial;&quot;&gt;with PII&amp;nbsp;&lt;/span&gt;&lt;div&gt;Detection + Redaction&lt;/div&gt;" style="sketch=0;points=[[0,0,0],[0.25,0,0],[0.5,0,0],[0.75,0,0],[1,0,0],[0,1,0],[0.25,1,0],[0.5,1,0],[0.75,1,0],[1,1,0],[0,0.25,0],[0,0.5,0],[0,0.75,0],[1,0.25,0],[1,0.5,0],[1,0.75,0]];outlineConnect=0;fontColor=#232F3E;fillColor=#01A88D;strokeColor=#ffffff;dashed=0;verticalLabelPosition=bottom;verticalAlign=top;align=center;html=1;fontSize=12;fontStyle=1;aspect=fixed;shape=mxgraph.aws4.resourceIcon;resIcon=mxgraph.aws4.transcribe;" parent="1" vertex="1">
          <mxGeometry x="620" y="376.4" width="93.6" height="93.6" as="geometry" />
        </mxCell>
        <mxCell id="KdUeozdmvhLvkdsUd1cm-9" value="Start&lt;div&gt;Transcription&lt;/div&gt;&lt;div&gt;Job&lt;/div&gt;" style="edgeStyle=orthogonalEdgeStyle;rounded=0;orthogonalLoop=1;jettySize=auto;html=1;entryX=0;entryY=0.5;entryDx=0;entryDy=0;entryPerimeter=0;fontStyle=1" parent="1" source="KdUeozdmvhLvkdsUd1cm-5" target="KdUeozdmvhLvkdsUd1cm-8" edge="1">
          <mxGeometry x="-0.0032" relative="1" as="geometry">
            <mxPoint as="offset" />
          </mxGeometry>
        </mxCell>
        <mxCell id="KdUeozdmvhLvkdsUd1cm-12" value="PII Redacted&lt;div&gt;Transcribe Output&amp;nbsp;&lt;div&gt;Bucket&lt;/div&gt;&lt;/div&gt;" style="sketch=0;points=[[0,0,0],[0.25,0,0],[0.5,0,0],[0.75,0,0],[1,0,0],[0,1,0],[0.25,1,0],[0.5,1,0],[0.75,1,0],[1,1,0],[0,0.25,0],[0,0.5,0],[0,0.75,0],[1,0.25,0],[1,0.5,0],[1,0.75,0]];outlineConnect=0;fontColor=#232F3E;fillColor=#7AA116;strokeColor=#ffffff;dashed=0;verticalLabelPosition=bottom;verticalAlign=top;align=center;html=1;fontSize=12;fontStyle=1;aspect=fixed;shape=mxgraph.aws4.resourceIcon;resIcon=mxgraph.aws4.s3;" parent="1" vertex="1">
          <mxGeometry x="800" y="380.4" width="90" height="90" as="geometry" />
        </mxCell>
        <mxCell id="KdUeozdmvhLvkdsUd1cm-13" style="edgeStyle=orthogonalEdgeStyle;rounded=0;orthogonalLoop=1;jettySize=auto;html=1;entryX=0;entryY=0.5;entryDx=0;entryDy=0;entryPerimeter=0;" parent="1" source="KdUeozdmvhLvkdsUd1cm-8" target="KdUeozdmvhLvkdsUd1cm-12" edge="1">
          <mxGeometry relative="1" as="geometry" />
        </mxCell>
        <mxCell id="KdUeozdmvhLvkdsUd1cm-23" value="JSON" style="edgeLabel;html=1;align=center;verticalAlign=middle;resizable=0;points=[];fontStyle=1" parent="KdUeozdmvhLvkdsUd1cm-13" vertex="1" connectable="0">
          <mxGeometry x="-0.0637" y="-3" relative="1" as="geometry">
            <mxPoint x="-2" y="1" as="offset" />
          </mxGeometry>
        </mxCell>
        <mxCell id="EYs-Rk_u4RflIAcH9Hm5-3" style="edgeStyle=orthogonalEdgeStyle;rounded=1;orthogonalLoop=1;jettySize=auto;html=1;curved=0;" edge="1" parent="1" source="KdUeozdmvhLvkdsUd1cm-14" target="EYs-Rk_u4RflIAcH9Hm5-2">
          <mxGeometry relative="1" as="geometry">
            <Array as="points">
              <mxPoint x="1200" y="425" />
              <mxPoint x="1200" y="425" />
            </Array>
          </mxGeometry>
        </mxCell>
        <mxCell id="aw2Xjq_hU3nwcaQGeIbU-3" value="PII&lt;br&gt;Detected" style="edgeLabel;html=1;align=center;verticalAlign=middle;resizable=0;points=[];" vertex="1" connectable="0" parent="EYs-Rk_u4RflIAcH9Hm5-3">
          <mxGeometry x="-0.6129" y="3" relative="1" as="geometry">
            <mxPoint x="14" y="3" as="offset" />
          </mxGeometry>
        </mxCell>
        <mxCell id="OSQo13fu_D4dTlnBx9Tf-1" style="edgeStyle=orthogonalEdgeStyle;rounded=1;orthogonalLoop=1;jettySize=auto;html=1;entryX=0;entryY=0.5;entryDx=0;entryDy=0;curved=0;" edge="1" parent="1" source="KdUeozdmvhLvkdsUd1cm-14" target="KdUeozdmvhLvkdsUd1cm-31">
          <mxGeometry relative="1" as="geometry">
            <Array as="points">
              <mxPoint x="1150" y="425" />
              <mxPoint x="1150" y="305" />
            </Array>
          </mxGeometry>
        </mxCell>
        <mxCell id="OSQo13fu_D4dTlnBx9Tf-2" value="Send&amp;nbsp;&lt;div&gt;Notification&lt;/div&gt;" style="edgeLabel;html=1;align=center;verticalAlign=middle;resizable=0;points=[];fontStyle=1" vertex="1" connectable="0" parent="OSQo13fu_D4dTlnBx9Tf-1">
          <mxGeometry x="0.1863" y="1" relative="1" as="geometry">
            <mxPoint as="offset" />
          </mxGeometry>
        </mxCell>
        <mxCell id="KdUeozdmvhLvkdsUd1cm-14" value="Analyze Transcription&lt;br&gt;For PII&lt;br&gt;&lt;div&gt;Service Lambda&lt;/div&gt;" style="sketch=0;points=[[0,0,0],[0.25,0,0],[0.5,0,0],[0.75,0,0],[1,0,0],[0,1,0],[0.25,1,0],[0.5,1,0],[0.75,1,0],[1,1,0],[0,0.25,0],[0,0.5,0],[0,0.75,0],[1,0.25,0],[1,0.5,0],[1,0.75,0]];outlineConnect=0;fontColor=#232F3E;fillColor=#ED7100;strokeColor=#ffffff;dashed=0;verticalLabelPosition=bottom;verticalAlign=top;align=center;html=1;fontSize=12;fontStyle=1;aspect=fixed;shape=mxgraph.aws4.resourceIcon;resIcon=mxgraph.aws4.lambda;" parent="1" vertex="1">
          <mxGeometry x="980" y="378" width="94" height="94" as="geometry" />
        </mxCell>
        <mxCell id="KdUeozdmvhLvkdsUd1cm-19" style="edgeStyle=orthogonalEdgeStyle;rounded=1;orthogonalLoop=1;jettySize=auto;html=1;entryX=0.5;entryY=0;entryDx=0;entryDy=0;entryPerimeter=0;startArrow=none;startFill=0;curved=0;" parent="1" source="KdUeozdmvhLvkdsUd1cm-8" target="KdUeozdmvhLvkdsUd1cm-1" edge="1">
          <mxGeometry relative="1" as="geometry">
            <Array as="points">
              <mxPoint x="649" y="320" />
              <mxPoint x="275" y="320" />
            </Array>
          </mxGeometry>
        </mxCell>
        <mxCell id="KdUeozdmvhLvkdsUd1cm-20" value="Get Object" style="edgeLabel;html=1;align=center;verticalAlign=middle;resizable=0;points=[];fontStyle=1" parent="KdUeozdmvhLvkdsUd1cm-19" vertex="1" connectable="0">
          <mxGeometry x="0.0331" y="1" relative="1" as="geometry">
            <mxPoint x="15" as="offset" />
          </mxGeometry>
        </mxCell>
        <mxCell id="KdUeozdmvhLvkdsUd1cm-25" style="edgeStyle=orthogonalEdgeStyle;rounded=0;orthogonalLoop=1;jettySize=auto;html=1;entryX=0;entryY=0.5;entryDx=0;entryDy=0;entryPerimeter=0;" parent="1" source="KdUeozdmvhLvkdsUd1cm-12" target="KdUeozdmvhLvkdsUd1cm-14" edge="1">
          <mxGeometry relative="1" as="geometry" />
        </mxCell>
        <mxCell id="KdUeozdmvhLvkdsUd1cm-29" value="S3 Event" style="edgeLabel;html=1;align=center;verticalAlign=middle;resizable=0;points=[];fontStyle=1" parent="KdUeozdmvhLvkdsUd1cm-25" vertex="1" connectable="0">
          <mxGeometry x="-0.1067" relative="1" as="geometry">
            <mxPoint as="offset" />
          </mxGeometry>
        </mxCell>
        <mxCell id="KdUeozdmvhLvkdsUd1cm-26" value="z" style="edgeStyle=orthogonalEdgeStyle;rounded=1;orthogonalLoop=1;jettySize=auto;html=1;entryX=0.5;entryY=0;entryDx=0;entryDy=0;entryPerimeter=0;curved=0;" parent="1" source="KdUeozdmvhLvkdsUd1cm-14" target="KdUeozdmvhLvkdsUd1cm-12" edge="1">
          <mxGeometry relative="1" as="geometry">
            <Array as="points">
              <mxPoint x="1007" y="320" />
              <mxPoint x="845" y="320" />
            </Array>
          </mxGeometry>
        </mxCell>
        <mxCell id="KdUeozdmvhLvkdsUd1cm-28" value="Get JSON" style="edgeLabel;html=1;align=center;verticalAlign=middle;resizable=0;points=[];fontStyle=1" parent="KdUeozdmvhLvkdsUd1cm-26" vertex="1" connectable="0">
          <mxGeometry x="-0.0011" relative="1" as="geometry">
            <mxPoint as="offset" />
          </mxGeometry>
        </mxCell>
        <mxCell id="KdUeozdmvhLvkdsUd1cm-31" value="Slack" style="shape=image;html=1;verticalAlign=bottom;verticalLabelPosition=top;labelBackgroundColor=#ffffff;imageAspect=0;aspect=fixed;image=https://cdn2.iconfinder.com/data/icons/social-media-2285/512/1_Slack_colored_svg-128.png;fontStyle=1;labelPosition=center;align=center;" parent="1" vertex="1">
          <mxGeometry x="1201.8" y="260" width="90.4" height="90.4" as="geometry" />
        </mxCell>
        <mxCell id="KdUeozdmvhLvkdsUd1cm-36" value="1" style="ellipse;whiteSpace=wrap;html=1;aspect=fixed;fillColor=#f8cecc;strokeColor=#b85450;fontSize=8;verticalAlign=middle;align=center;fontStyle=1" parent="1" vertex="1">
          <mxGeometry x="157" y="395" width="15" height="15" as="geometry" />
        </mxCell>
        <mxCell id="KdUeozdmvhLvkdsUd1cm-39" value="2" style="ellipse;whiteSpace=wrap;html=1;aspect=fixed;fillColor=#f8cecc;strokeColor=#b85450;fontSize=8;verticalAlign=middle;align=center;fontStyle=1" parent="1" vertex="1">
          <mxGeometry x="360" y="392" width="15" height="15" as="geometry" />
        </mxCell>
        <mxCell id="KdUeozdmvhLvkdsUd1cm-40" value="3" style="ellipse;whiteSpace=wrap;html=1;aspect=fixed;fillColor=#f8cecc;strokeColor=#b85450;fontSize=8;verticalAlign=middle;align=center;fontStyle=1" parent="1" vertex="1">
          <mxGeometry x="560" y="382" width="15" height="15" as="geometry" />
        </mxCell>
        <mxCell id="KdUeozdmvhLvkdsUd1cm-46" value="4" style="ellipse;whiteSpace=wrap;html=1;aspect=fixed;fillColor=#f8cecc;strokeColor=#b85450;fontSize=8;verticalAlign=middle;align=center;fontStyle=1" parent="1" vertex="1">
          <mxGeometry x="459.5" y="295" width="15" height="15" as="geometry" />
        </mxCell>
        <mxCell id="KdUeozdmvhLvkdsUd1cm-47" value="5" style="ellipse;whiteSpace=wrap;html=1;aspect=fixed;fillColor=#f8cecc;strokeColor=#b85450;fontSize=8;verticalAlign=middle;align=center;fontStyle=1" parent="1" vertex="1">
          <mxGeometry x="743" y="398" width="15" height="15" as="geometry" />
        </mxCell>
        <mxCell id="KdUeozdmvhLvkdsUd1cm-48" value="6" style="ellipse;whiteSpace=wrap;html=1;aspect=fixed;fillColor=#f8cecc;strokeColor=#b85450;fontSize=8;verticalAlign=middle;align=center;fontStyle=1" parent="1" vertex="1">
          <mxGeometry x="920" y="398" width="15" height="15" as="geometry" />
        </mxCell>
        <mxCell id="KdUeozdmvhLvkdsUd1cm-49" value="7" style="ellipse;whiteSpace=wrap;html=1;aspect=fixed;fillColor=#f8cecc;strokeColor=#b85450;fontSize=8;verticalAlign=middle;align=center;fontStyle=1" parent="1" vertex="1">
          <mxGeometry x="920" y="295" width="15" height="15" as="geometry" />
        </mxCell>
        <mxCell id="KdUeozdmvhLvkdsUd1cm-50" value="8" style="ellipse;whiteSpace=wrap;html=1;aspect=fixed;fillColor=#f8cecc;strokeColor=#b85450;fontSize=8;verticalAlign=middle;align=center;fontStyle=1" parent="1" vertex="1">
          <mxGeometry x="1106" y="392" width="15" height="15" as="geometry" />
        </mxCell>
        <mxCell id="EYs-Rk_u4RflIAcH9Hm5-2" value="Redact PII&amp;nbsp;&lt;div&gt;From Audio&amp;nbsp;&lt;/div&gt;&lt;div&gt;&lt;span style=&quot;background-color: initial;&quot;&gt;Lambda&lt;/span&gt;&lt;/div&gt;" style="sketch=0;points=[[0,0,0],[0.25,0,0],[0.5,0,0],[0.75,0,0],[1,0,0],[0,1,0],[0.25,1,0],[0.5,1,0],[0.75,1,0],[1,1,0],[0,0.25,0],[0,0.5,0],[0,0.75,0],[1,0.25,0],[1,0.5,0],[1,0.75,0]];outlineConnect=0;fontColor=#232F3E;fillColor=#ED7100;strokeColor=#ffffff;dashed=0;verticalLabelPosition=middle;verticalAlign=middle;align=center;html=1;fontSize=12;fontStyle=1;aspect=fixed;shape=mxgraph.aws4.resourceIcon;resIcon=mxgraph.aws4.lambda;labelPosition=right;" vertex="1" parent="1">
          <mxGeometry x="1200" y="376" width="94" height="94" as="geometry" />
        </mxCell>
        <mxCell id="EYs-Rk_u4RflIAcH9Hm5-8" style="edgeStyle=orthogonalEdgeStyle;rounded=1;orthogonalLoop=1;jettySize=auto;html=1;curved=0;entryX=1;entryY=0.75;entryDx=0;entryDy=0;entryPerimeter=0;exitX=0.5;exitY=1;exitDx=0;exitDy=0;exitPerimeter=0;" edge="1" parent="1" source="EYs-Rk_u4RflIAcH9Hm5-2" target="KdUeozdmvhLvkdsUd1cm-1">
          <mxGeometry relative="1" as="geometry">
            <mxPoint x="1238.2" y="588" as="sourcePoint" />
            <mxPoint x="320" y="445.5" as="targetPoint" />
            <Array as="points">
              <mxPoint x="1247" y="588" />
              <mxPoint x="370" y="588" />
              <mxPoint x="370" y="448" />
            </Array>
          </mxGeometry>
        </mxCell>
        <mxCell id="EYs-Rk_u4RflIAcH9Hm5-9" value="Get Object&lt;div&gt;&lt;br&gt;&lt;div&gt;Put Object&lt;/div&gt;&lt;/div&gt;" style="edgeLabel;html=1;align=center;verticalAlign=middle;resizable=0;points=[];" vertex="1" connectable="0" parent="EYs-Rk_u4RflIAcH9Hm5-8">
          <mxGeometry x="-0.8119" y="1" relative="1" as="geometry">
            <mxPoint x="-1" y="-67" as="offset" />
          </mxGeometry>
        </mxCell>
        <mxCell id="EYs-Rk_u4RflIAcH9Hm5-10" value="10" style="ellipse;whiteSpace=wrap;html=1;aspect=fixed;fillColor=#f8cecc;strokeColor=#b85450;fontSize=8;verticalAlign=middle;align=center;fontStyle=1" vertex="1" parent="1">
          <mxGeometry x="1202.2" y="495" width="15" height="15" as="geometry" />
        </mxCell>
        <mxCell id="aw2Xjq_hU3nwcaQGeIbU-2" value="9" style="ellipse;whiteSpace=wrap;html=1;aspect=fixed;fillColor=#f8cecc;strokeColor=#b85450;fontSize=8;verticalAlign=middle;align=center;fontStyle=1" vertex="1" parent="1">
          <mxGeometry x="1380" y="410" width="15" height="15" as="geometry" />
        </mxCell>
        <mxCell id="aw2Xjq_hU3nwcaQGeIbU-7" value="11" style="ellipse;whiteSpace=wrap;html=1;aspect=fixed;fillColor=#f8cecc;strokeColor=#b85450;fontSize=8;verticalAlign=middle;align=center;fontStyle=1" vertex="1" parent="1">
          <mxGeometry x="1202.2" y="521" width="15" height="15" as="geometry" />
        </mxCell>
        <mxCell id="OSQo13fu_D4dTlnBx9Tf-5" style="edgeStyle=orthogonalEdgeStyle;rounded=0;orthogonalLoop=1;jettySize=auto;html=1;entryX=0;entryY=0.5;entryDx=0;entryDy=0;entryPerimeter=0;" edge="1" parent="1" source="OSQo13fu_D4dTlnBx9Tf-4" target="KdUeozdmvhLvkdsUd1cm-1">
          <mxGeometry relative="1" as="geometry">
            <mxPoint x="110" y="425.390243902439" as="targetPoint" />
          </mxGeometry>
        </mxCell>
        <mxCell id="OSQo13fu_D4dTlnBx9Tf-6" value="Audio&lt;div&gt;Upload&lt;/div&gt;" style="edgeLabel;html=1;align=center;verticalAlign=middle;resizable=0;points=[];" vertex="1" connectable="0" parent="OSQo13fu_D4dTlnBx9Tf-5">
          <mxGeometry x="-0.3476" relative="1" as="geometry">
            <mxPoint x="14" as="offset" />
          </mxGeometry>
        </mxCell>
        <mxCell id="OSQo13fu_D4dTlnBx9Tf-4" value="" style="verticalLabelPosition=bottom;sketch=0;html=1;fillColor=#282828;strokeColor=none;verticalAlign=top;pointerEvents=1;align=center;shape=mxgraph.cisco_safe.people_places_things_icons.icon9;" vertex="1" parent="1">
          <mxGeometry x="60" y="402.8" width="50" height="45" as="geometry" />
        </mxCell>
        <mxCell id="OSQo13fu_D4dTlnBx9Tf-7" value="File" style="shadow=0;dashed=0;html=1;strokeColor=none;fillColor=#4495D1;labelPosition=center;verticalLabelPosition=top;verticalAlign=bottom;align=center;outlineConnect=0;shape=mxgraph.veeam.audio_file;" vertex="1" parent="1">
          <mxGeometry x="148.9" y="331.2" width="36.8" height="50.8" as="geometry" />
        </mxCell>
      </root>
    </mxGraphModel>
  </diagram>
  <diagram id="xnyv2Lw84s372pkBjFIM" name="Option 2">
    <mxGraphModel dx="2052" dy="1148" grid="1" gridSize="10" guides="1" tooltips="1" connect="1" arrows="1" fold="1" page="1" pageScale="1" pageWidth="1100" pageHeight="850" math="0" shadow="0">
      <root>
        <mxCell id="0" />
        <mxCell id="1" parent="0" />
        <mxCell id="fKqHTR6jOobMtm-j5v2W-1" value="Audio Bucket" style="sketch=0;points=[[0,0,0],[0.25,0,0],[0.5,0,0],[0.75,0,0],[1,0,0],[0,1,0],[0.25,1,0],[0.5,1,0],[0.75,1,0],[1,1,0],[0,0.25,0],[0,0.5,0],[0,0.75,0],[1,0.25,0],[1,0.5,0],[1,0.75,0]];outlineConnect=0;fontColor=#232F3E;fillColor=#7AA116;strokeColor=#ffffff;dashed=0;verticalLabelPosition=top;verticalAlign=bottom;align=center;html=1;fontSize=12;fontStyle=0;aspect=fixed;shape=mxgraph.aws4.resourceIcon;resIcon=mxgraph.aws4.s3;labelPosition=center;" vertex="1" parent="1">
          <mxGeometry x="540" y="120" width="90" height="90" as="geometry" />
        </mxCell>
        <mxCell id="fKqHTR6jOobMtm-j5v2W-5" value="Transcribe&lt;div&gt;Service Lambda&lt;/div&gt;" style="sketch=0;points=[[0,0,0],[0.25,0,0],[0.5,0,0],[0.75,0,0],[1,0,0],[0,1,0],[0.25,1,0],[0.5,1,0],[0.75,1,0],[1,1,0],[0,0.25,0],[0,0.5,0],[0,0.75,0],[1,0.25,0],[1,0.5,0],[1,0.75,0]];outlineConnect=0;fontColor=#232F3E;fillColor=#ED7100;strokeColor=#ffffff;dashed=0;verticalLabelPosition=bottom;verticalAlign=top;align=center;html=1;fontSize=12;fontStyle=1;aspect=fixed;shape=mxgraph.aws4.resourceIcon;resIcon=mxgraph.aws4.lambda;" vertex="1" parent="1">
          <mxGeometry x="340" y="285" width="94" height="94" as="geometry" />
        </mxCell>
        <mxCell id="GhrkAPt6zEXCXO-Butob-1" style="edgeStyle=orthogonalEdgeStyle;rounded=0;orthogonalLoop=1;jettySize=auto;html=1;" edge="1" parent="1" source="fKqHTR6jOobMtm-j5v2W-8" target="fKqHTR6jOobMtm-j5v2W-10">
          <mxGeometry relative="1" as="geometry" />
        </mxCell>
        <mxCell id="GhrkAPt6zEXCXO-Butob-2" value="JSON" style="edgeLabel;html=1;align=center;verticalAlign=middle;resizable=0;points=[];fontStyle=1" vertex="1" connectable="0" parent="GhrkAPt6zEXCXO-Butob-1">
          <mxGeometry x="-0.0698" y="-1" relative="1" as="geometry">
            <mxPoint as="offset" />
          </mxGeometry>
        </mxCell>
        <mxCell id="fKqHTR6jOobMtm-j5v2W-8" value="Transcribe Job&amp;nbsp;&lt;span style=&quot;background-color: initial;&quot;&gt;with PII&amp;nbsp;&lt;/span&gt;&lt;div&gt;Detection + Redaction&lt;/div&gt;" style="sketch=0;points=[[0,0,0],[0.25,0,0],[0.5,0,0],[0.75,0,0],[1,0,0],[0,1,0],[0.25,1,0],[0.5,1,0],[0.75,1,0],[1,1,0],[0,0.25,0],[0,0.5,0],[0,0.75,0],[1,0.25,0],[1,0.5,0],[1,0.75,0]];outlineConnect=0;fontColor=#232F3E;fillColor=#01A88D;strokeColor=#ffffff;dashed=0;verticalLabelPosition=bottom;verticalAlign=top;align=center;html=1;fontSize=12;fontStyle=1;aspect=fixed;shape=mxgraph.aws4.resourceIcon;resIcon=mxgraph.aws4.transcribe;" vertex="1" parent="1">
          <mxGeometry x="539" y="285.4" width="93.6" height="93.6" as="geometry" />
        </mxCell>
        <mxCell id="fKqHTR6jOobMtm-j5v2W-10" value="PII Redacted&lt;div&gt;Transcribe Output&amp;nbsp;&lt;div&gt;Bucket&lt;/div&gt;&lt;/div&gt;" style="sketch=0;points=[[0,0,0],[0.25,0,0],[0.5,0,0],[0.75,0,0],[1,0,0],[0,1,0],[0.25,1,0],[0.5,1,0],[0.75,1,0],[1,1,0],[0,0.25,0],[0,0.5,0],[0,0.75,0],[1,0.25,0],[1,0.5,0],[1,0.75,0]];outlineConnect=0;fontColor=#232F3E;fillColor=#7AA116;strokeColor=#ffffff;dashed=0;verticalLabelPosition=top;verticalAlign=bottom;align=center;html=1;fontSize=12;fontStyle=1;aspect=fixed;shape=mxgraph.aws4.resourceIcon;resIcon=mxgraph.aws4.s3;labelPosition=center;" vertex="1" parent="1">
          <mxGeometry x="767.5" y="287.20000000000005" width="90" height="90" as="geometry" />
        </mxCell>
        <mxCell id="GhrkAPt6zEXCXO-Butob-4" style="edgeStyle=orthogonalEdgeStyle;rounded=0;orthogonalLoop=1;jettySize=auto;html=1;" edge="1" parent="1" source="fKqHTR6jOobMtm-j5v2W-17" target="fKqHTR6jOobMtm-j5v2W-33">
          <mxGeometry relative="1" as="geometry" />
        </mxCell>
        <mxCell id="8dIF-5Zseuom3MUCvyvP-1" value="&lt;span style=&quot;font-weight: 700;&quot;&gt;Audio&lt;/span&gt;&lt;div style=&quot;font-weight: 700;&quot;&gt;Redaction&amp;nbsp;&lt;/div&gt;&lt;div style=&quot;font-weight: 700;&quot;&gt;Enabled&lt;/div&gt;" style="edgeLabel;html=1;align=center;verticalAlign=middle;resizable=0;points=[];" vertex="1" connectable="0" parent="GhrkAPt6zEXCXO-Butob-4">
          <mxGeometry x="-0.2363" y="1" relative="1" as="geometry">
            <mxPoint x="53" y="1" as="offset" />
          </mxGeometry>
        </mxCell>
        <mxCell id="R_xq6DOlJUp8WOqFgfSO-2" style="edgeStyle=orthogonalEdgeStyle;rounded=1;orthogonalLoop=1;jettySize=auto;html=1;exitX=1;exitY=0.5;exitDx=0;exitDy=0;exitPerimeter=0;entryX=1;entryY=0.5;entryDx=0;entryDy=0;curved=0;" edge="1" parent="1" source="fKqHTR6jOobMtm-j5v2W-17" target="R_xq6DOlJUp8WOqFgfSO-1">
          <mxGeometry relative="1" as="geometry">
            <Array as="points">
              <mxPoint x="520" y="542" />
              <mxPoint x="520" y="705" />
            </Array>
          </mxGeometry>
        </mxCell>
        <mxCell id="JdHqxZhpswUJdfuLuXqY-1" value="Send Notification" style="edgeLabel;html=1;align=center;verticalAlign=middle;resizable=0;points=[];" vertex="1" connectable="0" parent="R_xq6DOlJUp8WOqFgfSO-2">
          <mxGeometry x="0.0372" y="1" relative="1" as="geometry">
            <mxPoint as="offset" />
          </mxGeometry>
        </mxCell>
        <mxCell id="JdHqxZhpswUJdfuLuXqY-2" value="PII&lt;br&gt;Detected" style="edgeLabel;html=1;align=center;verticalAlign=middle;resizable=0;points=[];" vertex="1" connectable="0" parent="R_xq6DOlJUp8WOqFgfSO-2">
          <mxGeometry x="-0.8292" y="1" relative="1" as="geometry">
            <mxPoint as="offset" />
          </mxGeometry>
        </mxCell>
        <mxCell id="fKqHTR6jOobMtm-j5v2W-17" value="Analyze Transcription&lt;br&gt;For PII&lt;br&gt;&lt;div&gt;Service Lambda&lt;/div&gt;" style="sketch=0;points=[[0,0,0],[0.25,0,0],[0.5,0,0],[0.75,0,0],[1,0,0],[0,1,0],[0.25,1,0],[0.5,1,0],[0.75,1,0],[1,1,0],[0,0.25,0],[0,0.5,0],[0,0.75,0],[1,0.25,0],[1,0.5,0],[1,0.75,0]];outlineConnect=0;fontColor=#232F3E;fillColor=#ED7100;strokeColor=#ffffff;dashed=0;verticalLabelPosition=bottom;verticalAlign=top;align=center;html=1;fontSize=12;fontStyle=1;aspect=fixed;shape=mxgraph.aws4.resourceIcon;resIcon=mxgraph.aws4.lambda;" vertex="1" parent="1">
          <mxGeometry x="330" y="495" width="94" height="94" as="geometry" />
        </mxCell>
        <mxCell id="fKqHTR6jOobMtm-j5v2W-25" value="1" style="ellipse;whiteSpace=wrap;html=1;aspect=fixed;fillColor=#f8cecc;strokeColor=#b85450;fontSize=8;verticalAlign=middle;align=center;fontStyle=1" vertex="1" parent="1">
          <mxGeometry x="227" y="366" width="15" height="15" as="geometry" />
        </mxCell>
        <mxCell id="fKqHTR6jOobMtm-j5v2W-26" value="3" style="ellipse;whiteSpace=wrap;html=1;aspect=fixed;fillColor=#f8cecc;strokeColor=#b85450;fontSize=8;verticalAlign=middle;align=center;fontStyle=1" vertex="1" parent="1">
          <mxGeometry x="532" y="243" width="15" height="15" as="geometry" />
        </mxCell>
        <mxCell id="fKqHTR6jOobMtm-j5v2W-27" value="3" style="ellipse;whiteSpace=wrap;html=1;aspect=fixed;fillColor=#f8cecc;strokeColor=#b85450;fontSize=8;verticalAlign=middle;align=center;fontStyle=1" vertex="1" parent="1">
          <mxGeometry x="650" y="137" width="15" height="15" as="geometry" />
        </mxCell>
        <mxCell id="fKqHTR6jOobMtm-j5v2W-33" value="Redact PII From Audio&lt;div&gt;Lambda&lt;/div&gt;" style="sketch=0;points=[[0,0,0],[0.25,0,0],[0.5,0,0],[0.75,0,0],[1,0,0],[0,1,0],[0.25,1,0],[0.5,1,0],[0.75,1,0],[1,1,0],[0,0.25,0],[0,0.5,0],[0,0.75,0],[1,0.25,0],[1,0.5,0],[1,0.75,0]];outlineConnect=0;fontColor=#232F3E;fillColor=#ED7100;strokeColor=#ffffff;dashed=0;verticalLabelPosition=bottom;verticalAlign=top;align=center;html=1;fontSize=12;fontStyle=1;aspect=fixed;shape=mxgraph.aws4.resourceIcon;resIcon=mxgraph.aws4.lambda;" vertex="1" parent="1">
          <mxGeometry x="670" y="495" width="94" height="94" as="geometry" />
        </mxCell>
        <mxCell id="GhrkAPt6zEXCXO-Butob-3" style="edgeStyle=orthogonalEdgeStyle;rounded=1;orthogonalLoop=1;jettySize=auto;html=1;entryX=0.5;entryY=0;entryDx=0;entryDy=0;entryPerimeter=0;curved=0;startArrow=classic;startFill=1;" edge="1" parent="1" source="fKqHTR6jOobMtm-j5v2W-10" target="fKqHTR6jOobMtm-j5v2W-17">
          <mxGeometry relative="1" as="geometry">
            <Array as="points">
              <mxPoint x="812" y="445" />
              <mxPoint x="377" y="445" />
            </Array>
          </mxGeometry>
        </mxCell>
        <mxCell id="GhrkAPt6zEXCXO-Butob-6" value="S3 Event" style="edgeLabel;html=1;align=center;verticalAlign=middle;resizable=0;points=[];fontStyle=1" vertex="1" connectable="0" parent="GhrkAPt6zEXCXO-Butob-3">
          <mxGeometry x="0.0213" y="5" relative="1" as="geometry">
            <mxPoint x="212" y="-35" as="offset" />
          </mxGeometry>
        </mxCell>
        <mxCell id="GhrkAPt6zEXCXO-Butob-5" style="edgeStyle=orthogonalEdgeStyle;rounded=0;orthogonalLoop=1;jettySize=auto;html=1;entryX=0;entryY=0.5;entryDx=0;entryDy=0;entryPerimeter=0;" edge="1" parent="1" source="fKqHTR6jOobMtm-j5v2W-5" target="fKqHTR6jOobMtm-j5v2W-8">
          <mxGeometry relative="1" as="geometry" />
        </mxCell>
        <mxCell id="8Y9TBFA8Z_fV7TOEzol6-1" value="&lt;span style=&quot;font-weight: 700;&quot;&gt;Start&lt;/span&gt;&lt;div style=&quot;font-weight: 700;&quot;&gt;Transcription&lt;/div&gt;&lt;div style=&quot;font-weight: 700;&quot;&gt;Job&lt;/div&gt;" style="edgeLabel;html=1;align=center;verticalAlign=middle;resizable=0;points=[];" vertex="1" connectable="0" parent="GhrkAPt6zEXCXO-Butob-5">
          <mxGeometry x="-0.2071" y="4" relative="1" as="geometry">
            <mxPoint x="6" y="2" as="offset" />
          </mxGeometry>
        </mxCell>
        <mxCell id="GhrkAPt6zEXCXO-Butob-10" style="edgeStyle=orthogonalEdgeStyle;rounded=1;orthogonalLoop=1;jettySize=auto;html=1;entryX=1;entryY=0.5;entryDx=0;entryDy=0;entryPerimeter=0;curved=0;startArrow=none;startFill=0;" edge="1" parent="1" source="fKqHTR6jOobMtm-j5v2W-33" target="fKqHTR6jOobMtm-j5v2W-1">
          <mxGeometry relative="1" as="geometry">
            <Array as="points">
              <mxPoint x="920" y="542" />
              <mxPoint x="920" y="165" />
            </Array>
          </mxGeometry>
        </mxCell>
        <mxCell id="8dIF-5Zseuom3MUCvyvP-2" value="Get Object&lt;div&gt;&lt;br&gt;Put Object&lt;/div&gt;" style="edgeLabel;html=1;align=center;verticalAlign=middle;resizable=0;points=[];fontStyle=1" vertex="1" connectable="0" parent="GhrkAPt6zEXCXO-Butob-10">
          <mxGeometry x="-0.8811" y="-2" relative="1" as="geometry">
            <mxPoint x="27" as="offset" />
          </mxGeometry>
        </mxCell>
        <mxCell id="GhrkAPt6zEXCXO-Butob-11" value="Get&amp;nbsp; Transcription" style="edgeLabel;html=1;align=center;verticalAlign=middle;resizable=0;points=[];" vertex="1" connectable="0" parent="1">
          <mxGeometry x="459.99636363636324" y="450" as="geometry">
            <mxPoint x="-4" y="-3" as="offset" />
          </mxGeometry>
        </mxCell>
        <mxCell id="YSgRWeWLIGT1NpCBVQY2-1" value="" style="shape=actor;whiteSpace=wrap;html=1;" vertex="1" parent="1">
          <mxGeometry x="130" y="390" width="50" height="60" as="geometry" />
        </mxCell>
        <mxCell id="YSgRWeWLIGT1NpCBVQY2-2" style="edgeStyle=orthogonalEdgeStyle;rounded=1;orthogonalLoop=1;jettySize=auto;html=1;entryX=0;entryY=0.5;entryDx=0;entryDy=0;entryPerimeter=0;curved=0;" edge="1" parent="1" source="YSgRWeWLIGT1NpCBVQY2-1" target="fKqHTR6jOobMtm-j5v2W-5">
          <mxGeometry relative="1" as="geometry" />
        </mxCell>
        <mxCell id="YSgRWeWLIGT1NpCBVQY2-4" value="POST" style="edgeLabel;html=1;align=center;verticalAlign=middle;resizable=0;points=[];" vertex="1" connectable="0" parent="YSgRWeWLIGT1NpCBVQY2-2">
          <mxGeometry x="0.0022" y="-2" relative="1" as="geometry">
            <mxPoint as="offset" />
          </mxGeometry>
        </mxCell>
        <mxCell id="YSgRWeWLIGT1NpCBVQY2-3" style="edgeStyle=orthogonalEdgeStyle;rounded=1;orthogonalLoop=1;jettySize=auto;html=1;entryX=0;entryY=0.5;entryDx=0;entryDy=0;entryPerimeter=0;curved=0;" edge="1" parent="1" source="YSgRWeWLIGT1NpCBVQY2-1" target="fKqHTR6jOobMtm-j5v2W-17">
          <mxGeometry relative="1" as="geometry">
            <Array as="points">
              <mxPoint x="260" y="420" />
              <mxPoint x="260" y="542" />
            </Array>
          </mxGeometry>
        </mxCell>
        <mxCell id="YSgRWeWLIGT1NpCBVQY2-5" value="GET" style="edgeLabel;html=1;align=center;verticalAlign=middle;resizable=0;points=[];" vertex="1" connectable="0" parent="YSgRWeWLIGT1NpCBVQY2-3">
          <mxGeometry x="0.0347" y="-1" relative="1" as="geometry">
            <mxPoint as="offset" />
          </mxGeometry>
        </mxCell>
        <mxCell id="8Y9TBFA8Z_fV7TOEzol6-2" value="2" style="ellipse;whiteSpace=wrap;html=1;aspect=fixed;fillColor=#f8cecc;strokeColor=#b85450;fontSize=8;verticalAlign=middle;align=center;fontStyle=1" vertex="1" parent="1">
          <mxGeometry x="474" y="288.4" width="15" height="15" as="geometry" />
        </mxCell>
        <mxCell id="8Y9TBFA8Z_fV7TOEzol6-4" style="edgeStyle=orthogonalEdgeStyle;rounded=0;orthogonalLoop=1;jettySize=auto;html=1;entryX=0.5;entryY=1;entryDx=0;entryDy=0;entryPerimeter=0;" edge="1" parent="1" source="fKqHTR6jOobMtm-j5v2W-8" target="fKqHTR6jOobMtm-j5v2W-1">
          <mxGeometry relative="1" as="geometry" />
        </mxCell>
        <mxCell id="8Y9TBFA8Z_fV7TOEzol6-6" value="Analyze Audio" style="edgeLabel;html=1;align=center;verticalAlign=middle;resizable=0;points=[];" vertex="1" connectable="0" parent="8Y9TBFA8Z_fV7TOEzol6-4">
          <mxGeometry x="-0.0793" y="-1" relative="1" as="geometry">
            <mxPoint as="offset" />
          </mxGeometry>
        </mxCell>
        <mxCell id="8Y9TBFA8Z_fV7TOEzol6-7" value="4" style="ellipse;whiteSpace=wrap;html=1;aspect=fixed;fillColor=#f8cecc;strokeColor=#b85450;fontSize=8;verticalAlign=middle;align=center;fontStyle=1" vertex="1" parent="1">
          <mxGeometry x="686" y="304.4" width="15" height="15" as="geometry" />
        </mxCell>
        <mxCell id="8Y9TBFA8Z_fV7TOEzol6-8" value="5" style="ellipse;whiteSpace=wrap;html=1;aspect=fixed;fillColor=#f8cecc;strokeColor=#b85450;fontSize=8;verticalAlign=middle;align=center;fontStyle=1" vertex="1" parent="1">
          <mxGeometry x="766" y="408.5" width="15" height="15" as="geometry" />
        </mxCell>
        <mxCell id="8Y9TBFA8Z_fV7TOEzol6-10" value="6" style="ellipse;whiteSpace=wrap;html=1;aspect=fixed;fillColor=#f8cecc;strokeColor=#b85450;fontSize=8;verticalAlign=middle;align=center;fontStyle=1" vertex="1" parent="1">
          <mxGeometry x="453" y="420" width="15" height="15" as="geometry" />
        </mxCell>
        <mxCell id="8dIF-5Zseuom3MUCvyvP-3" value="7" style="ellipse;whiteSpace=wrap;html=1;aspect=fixed;fillColor=#f8cecc;strokeColor=#b85450;fontSize=8;verticalAlign=middle;align=center;fontStyle=1" vertex="1" parent="1">
          <mxGeometry x="551" y="500" width="15" height="15" as="geometry" />
        </mxCell>
        <mxCell id="8dIF-5Zseuom3MUCvyvP-5" value="8" style="ellipse;whiteSpace=wrap;html=1;aspect=fixed;fillColor=#f8cecc;strokeColor=#b85450;fontSize=8;verticalAlign=middle;align=center;fontStyle=1" vertex="1" parent="1">
          <mxGeometry x="823" y="503" width="15" height="15" as="geometry" />
        </mxCell>
        <mxCell id="R_xq6DOlJUp8WOqFgfSO-1" value="Slack Notification" style="shape=image;html=1;verticalAlign=top;verticalLabelPosition=bottom;labelBackgroundColor=#ffffff;imageAspect=0;aspect=fixed;image=https://cdn2.iconfinder.com/data/icons/social-media-2285/512/1_Slack_colored_svg-128.png;fontStyle=1" vertex="1" parent="1">
          <mxGeometry x="329.9999999999999" y="660" width="90.4" height="90.4" as="geometry" />
        </mxCell>
        <mxCell id="R_xq6DOlJUp8WOqFgfSO-3" value="10" style="ellipse;whiteSpace=wrap;html=1;aspect=fixed;fillColor=#f8cecc;strokeColor=#b85450;fontSize=8;verticalAlign=middle;align=center;fontStyle=1" vertex="1" parent="1">
          <mxGeometry x="570" y="625" width="15" height="15" as="geometry" />
        </mxCell>
        <mxCell id="R_xq6DOlJUp8WOqFgfSO-5" value="1" style="ellipse;whiteSpace=wrap;html=1;aspect=fixed;fillColor=#dae8fc;strokeColor=#6c8ebf;fontSize=8;verticalAlign=middle;align=center;fontStyle=1" vertex="1" parent="1">
          <mxGeometry x="229" y="475" width="15" height="15" as="geometry" />
        </mxCell>
        <mxCell id="R_xq6DOlJUp8WOqFgfSO-7" value="2" style="ellipse;whiteSpace=wrap;html=1;aspect=fixed;fillColor=#dae8fc;strokeColor=#6c8ebf;fontSize=8;verticalAlign=middle;align=center;fontStyle=1" vertex="1" parent="1">
          <mxGeometry x="472.5" y="420" width="15" height="15" as="geometry" />
        </mxCell>
        <mxCell id="R_xq6DOlJUp8WOqFgfSO-8" value="3" style="ellipse;whiteSpace=wrap;html=1;aspect=fixed;fillColor=#dae8fc;strokeColor=#6c8ebf;fontSize=8;verticalAlign=middle;align=center;fontStyle=1" vertex="1" parent="1">
          <mxGeometry x="573" y="500" width="15" height="15" as="geometry" />
        </mxCell>
        <mxCell id="R_xq6DOlJUp8WOqFgfSO-9" value="4" style="ellipse;whiteSpace=wrap;html=1;aspect=fixed;fillColor=#dae8fc;strokeColor=#6c8ebf;fontSize=8;verticalAlign=middle;align=center;fontStyle=1" vertex="1" parent="1">
          <mxGeometry x="844" y="503" width="15" height="15" as="geometry" />
        </mxCell>
        <mxCell id="R_xq6DOlJUp8WOqFgfSO-10" value="5" style="ellipse;whiteSpace=wrap;html=1;aspect=fixed;fillColor=#dae8fc;strokeColor=#6c8ebf;fontSize=8;verticalAlign=middle;align=center;fontStyle=1" vertex="1" parent="1">
          <mxGeometry x="844" y="571" width="15" height="15" as="geometry" />
        </mxCell>
        <mxCell id="R_xq6DOlJUp8WOqFgfSO-11" value="6" style="ellipse;whiteSpace=wrap;html=1;aspect=fixed;fillColor=#dae8fc;strokeColor=#6c8ebf;fontSize=8;verticalAlign=middle;align=center;fontStyle=1" vertex="1" parent="1">
          <mxGeometry x="589" y="625" width="15" height="15" as="geometry" />
        </mxCell>
        <mxCell id="447HyZieu9sjxLZSuLxL-1" value="9" style="ellipse;whiteSpace=wrap;html=1;aspect=fixed;fillColor=#f8cecc;strokeColor=#b85450;fontSize=8;verticalAlign=middle;align=center;fontStyle=1" vertex="1" parent="1">
          <mxGeometry x="823" y="571" width="15" height="15" as="geometry" />
        </mxCell>
      </root>
    </mxGraphModel>
  </diagram>
</mxfile>
